<svg width="56" height="71" viewBox="0 0 56 71" fill="none" xmlns="http://www.w3.org/2000/svg">
<g clip-path="url(#clip0_373_1021)">
<path d="M44.9724 28.2559H53.2123C53.9458 28.2618 54.6475 28.5582 55.1651 29.0808C55.6828 29.6034 55.9747 30.3101 55.9776 31.0477V36.2373C55.9776 36.9807 55.6839 37.6937 55.1611 38.2194C54.6383 38.7451 53.9293 39.0404 53.1899 39.0404H44.9724V28.2559Z" fill="#FF6259"/>
<path d="M11.0164 39.0292H2.77647C2.41039 39.0292 2.04789 38.9567 1.70967 38.8158C1.37145 38.675 1.06416 38.4685 0.805295 38.2082C0.546434 37.9479 0.341061 37.6389 0.200966 37.2988C0.0608721 36.9587 -0.0112047 36.5942 -0.0112047 36.2261L-0.0112047 31.0365C-0.0112047 30.6684 0.0608721 30.3039 0.200966 29.9638C0.341061 29.6237 0.546434 29.3147 0.805295 29.0544C1.06416 28.7941 1.37145 28.5876 1.70967 28.4468C2.04789 28.3059 2.41039 28.2334 2.77647 28.2334H11.0164L11.0164 39.0292Z" fill="#FF6259"/>
<path d="M39.1731 5.56116H16.8269C12.239 5.56116 8.51978 9.3009 8.51978 13.9141V55.3861C8.51978 59.9993 12.239 63.7391 16.8269 63.7391H39.1731C43.761 63.7391 47.4802 59.9993 47.4802 55.3861V13.9141C47.4802 9.3009 43.761 5.56116 39.1731 5.56116Z" fill="#FF805C"/>
<path d="M31.4706 5.56116H24.5294C20.2833 5.56116 16.2112 7.25724 13.2089 10.2762C10.2065 13.2952 8.51978 17.3897 8.51978 21.6592V26.2747H47.4802V21.6592C47.4802 17.3897 45.7935 13.2952 42.7911 10.2762C39.7887 7.25724 35.7166 5.56116 31.4706 5.56116Z" fill="#F1654B"/>
<path d="M13.7593 13.5425C13.7593 13.5425 14.5653 8.65685 22.9284 11.7751C31.2915 14.8934 31.8176 21.5352 40.9868 21.5352H49.4842C49.4842 21.5352 51.4994 13.126 42.3415 4.99819C33.1835 -3.1296 20.0959 -0.0113232 13.3562 4.99819C9.7177 7.71121 9.71768 12.3155 13.7593 13.5425Z" fill="#AB4A3C"/>
<path d="M12.5054 11.8202C12.5054 11.8202 10.5237 9.28733 7.10911 14.7134C3.69447 20.1394 8.51975 26.2747 8.51975 26.2747H9.98636C9.98636 26.2747 19.3346 14.7134 12.5054 11.8202Z" fill="#AB4A3C"/>
<path d="M38.5014 30.9352H16.7709C12.3067 30.9352 8.68774 34.5741 8.68774 39.063V61.9942C8.68774 66.483 12.3067 70.122 16.7709 70.122H38.5014C42.9656 70.122 46.5846 66.483 46.5846 61.9942V39.063C46.5846 34.5741 42.9656 30.9352 38.5014 30.9352Z" fill="#95392D"/>
<path d="M50.9956 50.3878C46.8756 24.6648 29.4218 30.451 27.6753 31.104C25.9176 30.451 8.47502 24.6648 4.34387 50.3878C4.34387 50.3878 25.4698 49.8362 27.6753 32.6125C29.836 49.8362 50.9956 50.3878 50.9956 50.3878Z" fill="#AB4A3C"/>
<path d="M34.7621 68.1294C35.1738 68.7241 35.8024 69.1311 36.5112 69.2618C37.2199 69.3925 37.9514 69.2364 38.5462 68.8274L44.8268 64.4032L47.066 66.013C46.6735 66.7017 46.5404 67.5093 46.6907 68.2886C46.841 69.0678 47.2648 69.7667 47.8848 70.258C48.5048 70.7492 49.2798 71 50.0684 70.9647C50.857 70.9294 51.6067 70.6103 52.1808 70.0656C52.7549 69.5209 53.1153 68.7868 53.1961 67.9972C53.2769 67.2077 53.0729 66.4152 52.6211 65.7643C52.1694 65.1134 51.5001 64.6474 50.7352 64.4513C49.9703 64.2552 49.1607 64.342 48.4542 64.6959L45.6553 62.7259L48.4542 60.7559C49.1745 61.1222 50.002 61.2154 50.7851 61.0184C51.5682 60.8214 52.2546 60.3475 52.7185 59.6833C53.1825 59.019 53.393 58.209 53.3116 57.4015C53.2301 56.5939 52.8622 55.8428 52.275 55.2858C51.6879 54.7287 50.9209 54.403 50.1144 54.3681C49.3079 54.3332 48.5159 54.5916 47.8834 55.0959C47.2509 55.6002 46.8201 56.3166 46.67 57.1141C46.5199 57.9117 46.6604 58.737 47.066 59.4388L44.8268 61.0486L38.5462 56.6245C37.9528 56.2143 37.2223 56.0563 36.5136 56.1849C35.805 56.3135 35.1755 56.7183 34.7621 57.3111L42.4422 62.7259L34.7621 68.1294ZM49.9656 65.9455C50.3044 65.9455 50.6355 66.0465 50.9172 66.2358C51.1989 66.425 51.4185 66.694 51.5481 67.0088C51.6778 67.3235 51.7117 67.6698 51.6456 68.0039C51.5795 68.338 51.4164 68.6449 51.1768 68.8858C50.9373 69.1267 50.632 69.2907 50.2998 69.3571C49.9675 69.4236 49.6231 69.3895 49.3101 69.2591C48.9971 69.1288 48.7296 68.908 48.5414 68.6247C48.3532 68.3415 48.2527 68.0086 48.2527 67.6679C48.2512 67.4413 48.2945 67.2166 48.38 67.007C48.4656 66.7973 48.5917 66.6069 48.7511 66.4467C48.9104 66.2864 49.0998 66.1596 49.3083 66.0736C49.5168 65.9875 49.7403 65.944 49.9656 65.9455ZM49.9656 56.0616C50.3044 56.0616 50.6355 56.1626 50.9172 56.3518C51.1989 56.5411 51.4185 56.8101 51.5481 57.1248C51.6778 57.4395 51.7117 57.7859 51.6456 58.12C51.5795 58.4541 51.4164 58.761 51.1768 59.0019C50.9373 59.2427 50.632 59.4068 50.2998 59.4732C49.9675 59.5397 49.6231 59.5055 49.3101 59.3752C48.9971 59.2448 48.7296 59.0241 48.5414 58.7408C48.3532 58.4576 48.2527 58.1246 48.2527 57.7839C48.2512 57.5573 48.2945 57.3327 48.38 57.123C48.4656 56.9134 48.5917 56.7229 48.7511 56.5627C48.9104 56.4025 49.0998 56.2756 49.3083 56.1896C49.5168 56.1036 49.7403 56.0601 49.9656 56.0616Z" fill="#24303C"/>
</g>
<defs>
<clipPath id="clip0_373_1021">
<rect width="56" height="71" fill="white"/>
</clipPath>
</defs>
</svg>
