<svg width="63" height="63" viewBox="0 0 63 63" fill="none" xmlns="http://www.w3.org/2000/svg">
<path d="M27.9581 5.18101C29.6618 2.68886 33.3382 2.68886 35.0419 5.18101C36.2747 6.98419 38.6653 7.57344 40.5948 6.54967C43.2616 5.13475 46.5169 6.84327 46.8673 9.84171C47.1208 12.0112 48.9638 13.644 51.1481 13.6342C54.1669 13.6206 56.2553 16.6462 55.1721 19.4641C54.3884 21.5029 55.2615 23.8051 57.2002 24.8115C59.8795 26.2024 60.3226 29.852 58.054 31.8437C56.4126 33.2848 56.1158 35.729 57.3647 37.5211C59.0907 39.9978 57.787 43.4353 54.8527 44.1446C52.7296 44.6578 51.3309 46.6842 51.6039 48.8513C51.9812 51.8465 49.2294 54.2844 46.3015 53.5488C44.1831 53.0165 42.0029 54.1608 41.2376 56.2066C40.1798 59.034 36.6102 59.9138 34.3595 57.9018C32.7311 56.4461 30.2689 56.4461 28.6405 57.9018C26.3898 59.9138 22.8202 59.034 21.7624 56.2066C20.9971 54.1608 18.8169 53.0165 16.6985 53.5488C13.7706 54.2844 11.0188 51.8465 11.3961 48.8513C11.6691 46.6842 10.2704 44.6578 8.1473 44.1446C5.21296 43.4353 3.90928 39.9978 5.63533 37.5211C6.88421 35.729 6.58742 33.2848 4.94597 31.8437C2.67736 29.852 3.1205 26.2024 5.79984 24.8115C7.73846 23.8051 8.61157 21.5029 7.82785 19.4641C6.74468 16.6462 8.83312 13.6206 11.8519 13.6342C14.0362 13.644 15.8792 12.0112 16.1327 9.84171C16.4831 6.84326 19.7385 5.13475 22.4052 6.54967C24.3347 7.57344 26.7253 6.98419 27.9581 5.18101Z" fill="#EF4A72"/>
<path d="M17.7715 31.8291L15.75 31.3457L16.4795 24.8594H23.6689V26.9072H18.5625L18.2461 29.7461C18.416 29.6465 18.6738 29.541 19.0195 29.4297C19.3652 29.3125 19.752 29.2539 20.1797 29.2539C20.8008 29.2539 21.3516 29.3506 21.832 29.5439C22.3125 29.7373 22.7197 30.0186 23.0537 30.3877C23.3936 30.7568 23.6514 31.208 23.8271 31.7412C24.0029 32.2744 24.0908 32.8779 24.0908 33.5518C24.0908 34.1201 24.0029 34.6621 23.8271 35.1777C23.6514 35.6875 23.3848 36.1445 23.0273 36.5488C22.6699 36.9473 22.2217 37.2607 21.6826 37.4893C21.1436 37.7178 20.5049 37.832 19.7666 37.832C19.2158 37.832 18.6826 37.75 18.167 37.5859C17.6572 37.4219 17.1973 37.1787 16.7871 36.8564C16.3828 36.5342 16.0576 36.1445 15.8115 35.6875C15.5713 35.2246 15.4453 34.6973 15.4336 34.1055H17.9473C17.9824 34.4688 18.0762 34.7822 18.2285 35.0459C18.3867 35.3037 18.5947 35.5029 18.8525 35.6436C19.1104 35.7842 19.4121 35.8545 19.7578 35.8545C20.0801 35.8545 20.3555 35.793 20.584 35.6699C20.8125 35.5469 20.9971 35.377 21.1377 35.1602C21.2783 34.9375 21.3809 34.6797 21.4453 34.3867C21.5156 34.0879 21.5508 33.7656 21.5508 33.4199C21.5508 33.0742 21.5098 32.7607 21.4277 32.4795C21.3457 32.1982 21.2197 31.9551 21.0498 31.75C20.8799 31.5449 20.6631 31.3867 20.3994 31.2754C20.1416 31.1641 19.8398 31.1084 19.4941 31.1084C19.0254 31.1084 18.6621 31.1816 18.4043 31.3281C18.1523 31.4746 17.9414 31.6416 17.7715 31.8291ZM34.3389 30.1328V32.3477C34.3389 33.3086 34.2363 34.1377 34.0312 34.835C33.8262 35.5264 33.5303 36.0947 33.1436 36.54C32.7627 36.9795 32.3086 37.3047 31.7812 37.5156C31.2539 37.7266 30.668 37.832 30.0234 37.832C29.5078 37.832 29.0273 37.7676 28.582 37.6387C28.1367 37.5039 27.7354 37.2959 27.3779 37.0146C27.0264 36.7334 26.7217 36.3789 26.4639 35.9512C26.2119 35.5176 26.0186 35.002 25.8838 34.4043C25.749 33.8066 25.6816 33.1211 25.6816 32.3477V30.1328C25.6816 29.1719 25.7842 28.3486 25.9893 27.6631C26.2002 26.9717 26.4961 26.4062 26.877 25.9668C27.2637 25.5273 27.7207 25.2051 28.248 25C28.7754 24.7891 29.3613 24.6836 30.0059 24.6836C30.5215 24.6836 30.999 24.751 31.4385 24.8857C31.8838 25.0146 32.2852 25.2168 32.6426 25.4922C33 25.7676 33.3047 26.1221 33.5566 26.5557C33.8086 26.9834 34.002 27.4961 34.1367 28.0938C34.2715 28.6855 34.3389 29.3652 34.3389 30.1328ZM31.7988 32.6816V29.79C31.7988 29.3271 31.7725 28.9229 31.7197 28.5771C31.6729 28.2314 31.5996 27.9385 31.5 27.6982C31.4004 27.4521 31.2773 27.2529 31.1309 27.1006C30.9844 26.9482 30.8174 26.8369 30.6299 26.7666C30.4424 26.6963 30.2344 26.6611 30.0059 26.6611C29.7188 26.6611 29.4639 26.7168 29.2412 26.8281C29.0244 26.9395 28.8398 27.1182 28.6875 27.3643C28.5352 27.6045 28.418 27.9268 28.3359 28.3311C28.2598 28.7295 28.2217 29.2158 28.2217 29.79V32.6816C28.2217 33.1445 28.2451 33.5518 28.292 33.9033C28.3447 34.2549 28.4209 34.5566 28.5205 34.8086C28.626 35.0547 28.749 35.2568 28.8896 35.415C29.0361 35.5674 29.2031 35.6787 29.3906 35.749C29.584 35.8193 29.7949 35.8545 30.0234 35.8545C30.3047 35.8545 30.5537 35.7988 30.7705 35.6875C30.9932 35.5703 31.1807 35.3887 31.333 35.1426C31.4912 34.8906 31.6084 34.5625 31.6846 34.1582C31.7607 33.7539 31.7988 33.2617 31.7988 32.6816ZM36.0264 27.9971V27.3203C36.0264 26.834 36.1318 26.3916 36.3428 25.9932C36.5537 25.5947 36.8643 25.2754 37.2744 25.0352C37.6846 24.7949 38.1885 24.6748 38.7861 24.6748C39.4014 24.6748 39.9141 24.7949 40.3242 25.0352C40.7402 25.2754 41.0508 25.5947 41.2559 25.9932C41.4668 26.3916 41.5723 26.834 41.5723 27.3203V27.9971C41.5723 28.4717 41.4668 28.9082 41.2559 29.3066C41.0508 29.7051 40.7432 30.0244 40.333 30.2646C39.9229 30.5049 39.416 30.625 38.8125 30.625C38.2031 30.625 37.6904 30.5049 37.2744 30.2646C36.8643 30.0244 36.5537 29.7051 36.3428 29.3066C36.1318 28.9082 36.0264 28.4717 36.0264 27.9971ZM37.7051 27.3203V27.9971C37.7051 28.2021 37.7432 28.3984 37.8193 28.5859C37.9014 28.7676 38.0244 28.917 38.1885 29.0342C38.3584 29.1455 38.5635 29.2012 38.8037 29.2012C39.0557 29.2012 39.2607 29.1455 39.4189 29.0342C39.5771 28.917 39.6943 28.7676 39.7705 28.5859C39.8467 28.3984 39.8848 28.2021 39.8848 27.9971V27.3203C39.8848 27.1035 39.8438 26.9043 39.7617 26.7227C39.6855 26.5352 39.5654 26.3857 39.4014 26.2744C39.2432 26.1572 39.0381 26.0986 38.7861 26.0986C38.5518 26.0986 38.3525 26.1572 38.1885 26.2744C38.0244 26.3857 37.9014 26.5352 37.8193 26.7227C37.7432 26.9043 37.7051 27.1035 37.7051 27.3203ZM42.1436 35.1953V34.5186C42.1436 34.0381 42.249 33.5986 42.46 33.2002C42.6768 32.8018 42.9902 32.4824 43.4004 32.2422C43.8164 32.002 44.3262 31.8818 44.9297 31.8818C45.5391 31.8818 46.0488 32.002 46.459 32.2422C46.8691 32.4824 47.1797 32.8018 47.3906 33.2002C47.6016 33.5986 47.707 34.0381 47.707 34.5186V35.1953C47.707 35.6758 47.6016 36.1152 47.3906 36.5137C47.1855 36.9121 46.8779 37.2314 46.4678 37.4717C46.0576 37.7119 45.5508 37.832 44.9473 37.832C44.3379 37.832 43.8252 37.7119 43.4092 37.4717C42.9932 37.2314 42.6768 36.9121 42.46 36.5137C42.249 36.1152 42.1436 35.6758 42.1436 35.1953ZM43.8311 34.5186V35.1953C43.8311 35.4062 43.8779 35.6055 43.9717 35.793C44.0654 35.9805 44.1943 36.1299 44.3584 36.2412C44.5283 36.3525 44.7246 36.4082 44.9473 36.4082C45.2285 36.4082 45.4482 36.3525 45.6064 36.2412C45.7646 36.1299 45.873 35.9805 45.9316 35.793C45.9961 35.6055 46.0283 35.4062 46.0283 35.1953V34.5186C46.0283 34.3076 45.9873 34.1113 45.9053 33.9297C45.8232 33.7422 45.7002 33.5928 45.5361 33.4814C45.3779 33.3643 45.1758 33.3057 44.9297 33.3057C44.6836 33.3057 44.4785 33.3643 44.3145 33.4814C44.1562 33.5928 44.0361 33.7422 43.9541 33.9297C43.8721 34.1113 43.8311 34.3076 43.8311 34.5186ZM45.5537 26.6875L39.3047 36.6895L38.0742 36.0391L44.3232 26.0371L45.5537 26.6875Z" fill="#FAFAFA"/>
</svg>
