<svg width="65" height="73" viewBox="0 0 65 73" fill="none" xmlns="http://www.w3.org/2000/svg">
<g clip-path="url(#clip0_373_1066)">
<path d="M51.4189 32.3613H60.8399C61.6786 32.3681 62.4808 32.7076 63.0726 33.3061C63.6645 33.9046 63.9983 34.714 64.0016 35.5588V41.5024C64.0016 42.3539 63.6658 43.1704 63.0681 43.7725C62.4703 44.3746 61.6596 44.7128 60.8143 44.7128H51.4189V32.3613Z" fill="#FF6259"/>
<path d="M12.5955 44.7H3.17451C2.75595 44.7 2.34149 44.6169 1.95479 44.4556C1.56809 44.2942 1.21675 44.0578 0.920779 43.7597C0.624813 43.4615 0.39 43.1076 0.229824 42.7181C0.0696487 42.3286 -0.0127592 41.9112 -0.0127592 41.4896L-0.0127592 35.5459C-0.0127592 35.1243 0.0696487 34.7069 0.229824 34.3174C0.39 33.9279 0.624813 33.574 0.920779 33.2759C1.21675 32.9777 1.56809 32.7413 1.95479 32.5799C2.34149 32.4186 2.75595 32.3356 3.17451 32.3356H12.5955L12.5955 44.687V44.7Z" fill="#FF6259"/>
<path d="M44.7883 6.36914H19.2389C13.9934 6.36914 9.74103 10.6522 9.74103 15.9357V63.4334C9.74103 68.7169 13.9934 73 19.2389 73H44.7883C50.0338 73 54.2861 68.7169 54.2861 63.4334V15.9357C54.2861 10.6522 50.0338 6.36914 44.7883 6.36914Z" fill="#FF805C"/>
<path d="M35.9817 6.36908H28.0455C23.1908 6.36908 18.535 8.31155 15.1023 11.7692C11.6695 15.2268 9.74103 19.9163 9.74103 24.8061V30.0793H54.2861V24.7931C54.2827 19.9056 52.3527 15.2194 48.9204 11.7646C45.488 8.30978 40.8341 6.36908 35.9817 6.36908Z" fill="#F1654B"/>
<path d="M15.7315 15.4973C15.7315 15.4973 16.6532 9.91467 26.215 13.486C35.7768 17.0574 36.3785 24.6642 46.8619 24.6642H56.5774C56.5774 24.6642 58.8814 15.0332 48.4108 5.72443C37.9401 -3.5843 22.9765 -0.0258366 15.2707 5.72443C11.1106 8.83163 11.1106 14.1049 15.7315 15.4973Z" fill="#AB4A3C"/>
<path d="M14.2979 13.5376C14.2979 13.5376 12.0322 10.6367 8.12814 16.8511C4.22405 23.0655 9.741 30.0793 9.741 30.0793H11.4178C11.4178 30.0793 22.1061 16.8511 14.2979 13.5376Z" fill="#AB4A3C"/>
<path d="M43.8283 24.4064C44.2966 25.0866 45.0132 25.5525 45.8215 25.7023C46.6297 25.8521 47.464 25.6736 48.142 25.2058L55.3358 20.1389L57.8958 21.9825C57.4472 22.7713 57.2949 23.6962 57.4668 24.5886C57.6386 25.4811 58.1231 26.2816 58.832 26.8442C59.5409 27.4068 60.427 27.6941 61.3287 27.6537C62.2303 27.6132 63.0874 27.2477 63.7439 26.6239C64.4003 26 64.8123 25.1593 64.9047 24.255C64.9971 23.3507 64.7638 22.4431 64.2473 21.6976C63.7308 20.9522 62.9656 20.4185 62.091 20.1939C61.2165 19.9693 60.2909 20.0687 59.4831 20.474L56.283 18.2178L59.4831 15.9615C60.3067 16.3811 61.2528 16.4878 62.1481 16.2622C63.0435 16.0366 63.8282 15.4938 64.3587 14.7331C64.8891 13.9723 65.1298 13.0446 65.0367 12.1197C64.9436 11.1949 64.5229 10.3347 63.8516 9.69672C63.1803 9.05874 62.3033 8.68562 61.3812 8.64567C60.4592 8.60571 59.5536 8.90158 58.8304 9.47914C58.1072 10.0567 57.6147 10.8773 57.4431 11.7907C57.2715 12.7041 57.4322 13.6492 57.8958 14.4531L55.3358 16.2967L48.142 11.2298C47.8076 10.9959 47.4307 10.8307 47.0328 10.7436C46.635 10.6565 46.2239 10.6492 45.8233 10.7223C45.4226 10.7953 45.0403 10.9472 44.6979 11.1693C44.3556 11.3913 44.0601 11.6791 43.8283 12.0163L52.6093 18.2178L43.8283 24.4064ZM61.2112 21.9052C61.5985 21.9052 61.9771 22.0209 62.2992 22.2376C62.6212 22.4544 62.8723 22.7625 63.0205 23.1229C63.1687 23.4834 63.2076 23.88 63.132 24.2627C63.0564 24.6453 62.8699 24.9968 62.596 25.2727C62.3221 25.5486 61.9731 25.7364 61.5932 25.8125C61.2133 25.8887 60.8195 25.8496 60.4617 25.7003C60.1038 25.551 59.798 25.2981 59.5828 24.9737C59.3676 24.6493 59.2527 24.268 59.2527 23.8778C59.2527 23.3546 59.459 22.8529 59.8263 22.4829C60.1936 22.113 60.6917 21.9052 61.2112 21.9052ZM61.2112 10.5852C61.5985 10.5852 61.9771 10.7008 62.2992 10.9176C62.6212 11.1344 62.8723 11.4424 63.0205 11.8029C63.1687 12.1633 63.2076 12.56 63.132 12.9426C63.0564 13.3253 62.8699 13.6768 62.596 13.9526C62.3221 14.2285 61.9731 14.4164 61.5932 14.4925C61.2133 14.5686 60.8195 14.5296 60.4617 14.3803C60.1038 14.231 59.798 13.9781 59.5828 13.6537C59.3676 13.3293 59.2527 12.9479 59.2527 12.5578C59.2527 12.0346 59.459 11.5329 59.8263 11.1629C60.1936 10.793 60.6917 10.5852 61.2112 10.5852Z" fill="#24303C"/>
</g>
<defs>
<clipPath id="clip0_373_1066">
<rect width="65" height="73" fill="white"/>
</clipPath>
</defs>
</svg>
