<svg width="66" height="78" viewBox="0 0 66 78" fill="none" xmlns="http://www.w3.org/2000/svg">
<g clip-path="url(#clip0_373_1035)">
<path d="M53.0032 36.5201H62.7145C63.5813 36.5271 64.4102 36.8753 65.0206 37.4888C65.6311 38.1024 65.9736 38.9317 65.9736 39.7959V45.8607C65.9736 46.7295 65.6274 47.5627 65.0113 48.177C64.3951 48.7913 63.5595 49.1364 62.6881 49.1364H53.0032V36.5201Z" fill="#FF6259"/>
<path d="M12.9836 49.1233H3.27229C2.84083 49.1233 2.4136 49.0385 2.01499 48.8739C1.61637 48.7093 1.2542 48.468 0.949116 48.1638C0.644031 47.8597 0.401982 47.4986 0.236872 47.1011C0.0717602 46.7037 -0.0131874 46.2777 -0.0131874 45.8475L-0.0131874 39.7827C-0.0131874 39.3525 0.0717602 38.9266 0.236872 38.5291C0.401982 38.1317 0.644031 37.7706 0.949116 37.4664C1.2542 37.1622 1.61637 36.921 2.01499 36.7564C2.4136 36.5917 2.84083 36.507 3.27229 36.507H12.9836L12.9836 49.1101V49.1233Z" fill="#FF6259"/>
<path d="M46.1683 9.99829H19.8317C14.4245 9.99829 10.0412 14.3687 10.0412 19.7598V68.2253C10.0412 73.6165 14.4245 77.9868 19.8317 77.9868H46.1683C51.5755 77.9868 55.9588 73.6165 55.9588 68.2253V19.7598C55.9588 14.3687 51.5755 9.99829 46.1683 9.99829Z" fill="#FF805C"/>
<path d="M37.0904 9.99829H28.9096C23.9054 9.99829 19.1061 11.9803 15.5676 15.5084C12.0291 19.0364 10.0412 23.8215 10.0412 28.8109V34.2442H55.9588V28.8372C55.9623 26.3645 55.4768 23.9154 54.5301 21.6299C53.5835 19.3444 52.1942 17.2674 50.4417 15.5177C48.6893 13.768 46.6081 12.3799 44.3171 11.4329C42.0262 10.4858 39.5704 9.99829 37.0904 9.99829Z" fill="#F1654B"/>
<path d="M16.2163 19.3256C16.2163 19.3256 17.1663 13.6292 27.0227 17.2733C36.8792 20.9175 37.4994 28.6662 48.3058 28.6662H58.3207C58.3207 28.6662 60.6957 18.8521 49.9024 9.34052C39.1091 -0.171034 23.6845 3.48624 15.7413 9.34052C11.453 12.511 11.453 17.9048 16.2163 19.3256Z" fill="#AB4A3C"/>
<path d="M14.7385 17.3261C14.7385 17.3261 12.403 14.366 8.37859 20.6939C4.3542 27.0218 10.0411 34.2442 10.0411 34.2442H11.7696C11.7696 34.2442 22.7872 20.6939 14.7385 17.3261Z" fill="#AB4A3C"/>
<path d="M47.3559 5.48599C47.3585 6.57472 47.0368 7.63973 46.4318 8.54607C45.8268 9.4524 44.9655 10.1592 43.9571 10.5771C42.9488 10.9949 41.8388 11.105 40.7677 10.8932C39.6966 10.6814 38.7126 10.1574 37.9404 9.38757C37.1683 8.61772 36.6427 7.63664 36.4303 6.5687C36.2179 5.50076 36.3283 4.39402 36.7474 3.38866C37.1665 2.3833 37.8754 1.52457 38.7844 0.92133C39.6935 0.318086 40.7616 -0.00258581 41.8536 1.57043e-05C43.3118 0.00348976 44.7093 0.582614 45.7404 1.61067C46.7715 2.63873 47.3524 4.0321 47.3559 5.48599Z" fill="white"/>
<path d="M65.1423 26.6139C65.1397 27.6984 64.8148 28.7577 64.2086 29.6581C63.6025 30.5585 62.7423 31.2596 61.7366 31.6728C60.731 32.086 59.6251 32.1928 58.5587 31.9796C57.4922 31.7665 56.5131 31.243 55.7449 30.4753C54.9767 29.7075 54.4539 28.73 54.2427 27.6662C54.0315 26.6024 54.1412 25.5 54.5581 24.4984C54.9749 23.4967 55.6801 22.6407 56.5846 22.0385C57.4892 21.4363 58.5525 21.1149 59.6402 21.1149C60.3638 21.1149 61.0804 21.2572 61.7488 21.5337C62.4172 21.8102 63.0243 22.2154 63.5354 22.7262C64.0465 23.2371 64.4515 23.8434 64.7273 24.5105C65.003 25.1776 65.1441 25.8924 65.1423 26.6139Z" fill="white"/>
<path d="M60.9068 17.747C60.9042 18.8314 60.5793 19.8907 59.9731 20.7912C59.3669 21.6916 58.5067 22.3927 57.5011 22.8059C56.4955 23.2191 55.3896 23.3258 54.3231 23.1127C53.2567 22.8995 52.2775 22.376 51.5094 21.6083C50.7412 20.8405 50.2185 19.863 50.0072 18.7992C49.796 17.7354 49.9057 16.6331 50.3225 15.6314C50.7394 14.6298 51.4446 13.7737 52.3492 13.1715C53.2537 12.5693 54.317 12.2479 55.4046 12.2479C56.1283 12.2479 56.8448 12.3902 57.5133 12.6667C58.1817 12.9433 58.7888 13.3485 59.2999 13.8593C59.811 14.3701 60.2161 14.9765 60.4918 15.6436C60.7676 16.3107 60.9086 17.0255 60.9068 17.747Z" fill="white"/>
<path d="M54.5602 9.72196C54.5602 10.8096 54.2367 11.8728 53.6307 12.7771C53.0246 13.6815 52.1633 14.3862 51.1554 14.8024C50.1476 15.2187 49.0387 15.3275 47.9688 15.1154C46.8989 14.9032 45.9162 14.3795 45.1449 13.6105C44.3735 12.8414 43.8482 11.8615 43.6354 10.7948C43.4226 9.72808 43.5318 8.62239 43.9492 7.61757C44.3667 6.61274 45.0736 5.75392 45.9806 5.14968C46.8876 4.54543 47.954 4.2229 49.0448 4.2229C50.5076 4.2229 51.9104 4.80228 52.9448 5.83356C53.9791 6.86483 54.5602 8.26352 54.5602 9.72196Z" fill="white"/>
<path d="M37.1827 5.91996C37.1801 7.00441 36.8552 8.0638 36.249 8.96422C35.6428 9.86464 34.7826 10.5657 33.777 10.9789C32.7714 11.3921 31.6655 11.4989 30.599 11.2857C29.5326 11.0726 28.5534 10.5491 27.7852 9.78131C27.0171 9.01357 26.4943 8.03604 26.283 6.97224C26.0718 5.90844 26.1816 4.80614 26.5984 3.80449C27.0152 2.80283 27.7204 1.94676 28.625 1.34454C29.5295 0.742321 30.5928 0.420902 31.6805 0.420898C32.4042 0.420896 33.1207 0.563287 33.7891 0.839802C34.4576 1.11632 35.0647 1.52155 35.5758 2.03236C36.0869 2.54317 36.4919 3.14951 36.7676 3.81661C37.0434 4.48371 37.1844 5.19843 37.1827 5.91996Z" fill="white"/>
<path d="M27.8673 8.86697C27.8699 9.9557 27.5482 11.0206 26.9432 11.927C26.3382 12.8333 25.477 13.5402 24.4686 13.958C23.4603 14.3759 22.3502 14.4859 21.2791 14.2741C20.208 14.0623 19.2241 13.5384 18.4519 12.7685C17.6798 11.9987 17.1542 11.0176 16.9418 9.94968C16.7294 8.88174 16.8397 7.775 17.2588 6.76964C17.6779 5.76428 18.3869 4.90556 19.2959 4.30231C20.205 3.69907 21.2731 3.3784 22.3651 3.381C23.8233 3.38447 25.2207 3.9636 26.2518 4.99165C27.2829 6.01971 27.8638 7.41308 27.8673 8.86697Z" fill="white"/>
<path d="M19.8184 14.366C19.8184 15.4536 19.495 16.5168 18.889 17.4211C18.2829 18.3254 17.4215 19.0303 16.4137 19.4465C15.4059 19.8627 14.297 19.9716 13.2271 19.7594C12.1572 19.5472 11.1744 19.0235 10.4031 18.2544C9.63175 17.4854 9.10645 16.5056 8.89364 15.4388C8.68083 14.3721 8.79004 13.2664 9.20748 12.2616C9.62493 11.2568 10.3319 10.3979 11.2389 9.79364C12.1459 9.18939 13.2122 8.86694 14.303 8.86694C15.7658 8.86694 17.1687 9.44624 18.2031 10.4775C19.2374 11.5088 19.8184 12.9076 19.8184 14.366Z" fill="white"/>
<path d="M14.7385 20.6939C14.7411 21.7821 14.4198 22.8466 13.8154 23.7526C13.2109 24.6587 12.3505 25.3655 11.3429 25.7837C10.3353 26.2019 9.22596 26.3128 8.15521 26.1021C7.08446 25.8914 6.10048 25.3687 5.32782 24.6001C4.55516 23.8316 4.02854 22.8518 3.81466 21.7847C3.60078 20.7176 3.70919 19.6113 4.12625 18.6057C4.5433 17.6001 5.25028 16.7405 6.15756 16.1357C7.06485 15.5308 8.13169 15.208 9.22309 15.208C10.6836 15.208 12.0844 15.7855 13.1184 16.8139C14.1523 17.8424 14.735 19.2377 14.7385 20.6939Z" fill="white"/>
<path d="M15.1607 28.7188C15.1633 29.807 14.8421 30.8715 14.2376 31.7775C13.6332 32.6836 12.7727 33.3905 11.7652 33.8087C10.7576 34.2269 9.6482 34.3377 8.57745 34.127C7.5067 33.9163 6.52272 33.3936 5.75006 32.625C4.9774 31.8565 4.45079 30.8767 4.2369 29.8096C4.02302 28.7426 4.13143 27.6362 4.54849 26.6306C4.96555 25.625 5.67252 24.7654 6.5798 24.1606C7.48709 23.5557 8.55393 23.2329 9.64534 23.2329C11.1058 23.2329 12.5067 23.8105 13.5406 24.8389C14.5746 25.8673 15.1572 27.2626 15.1607 28.7188Z" fill="white"/>
<path d="M23.1568 22.8119C23.1594 23.9001 22.8381 24.9646 22.2337 25.8707C21.6292 26.7767 20.7688 27.4836 19.7612 27.9018C18.7536 28.32 17.6442 28.4308 16.5735 28.2201C15.5027 28.0094 14.5188 27.4867 13.7461 26.7182C12.9734 25.9496 12.4468 24.9698 12.2329 23.9028C12.0191 22.8357 12.1275 21.7294 12.5445 20.7238C12.9616 19.7182 13.6685 18.8585 14.5758 18.2537C15.4831 17.6489 16.55 17.3261 17.6414 17.326C19.1019 17.326 20.5027 17.9036 21.5366 18.932C22.5706 19.9605 23.1533 21.3558 23.1568 22.8119Z" fill="white"/>
<path d="M30.8361 15.629C30.8387 16.7171 30.5174 17.7816 29.913 18.6877C29.3085 19.5937 28.4481 20.3006 27.4405 20.7188C26.4329 21.1371 25.3236 21.2478 24.2528 21.0371C23.1821 20.8264 22.1981 20.3037 21.4254 19.5352C20.6528 18.7667 20.1261 17.7869 19.9123 16.7198C19.6984 15.6527 19.8068 14.5464 20.2238 13.5408C20.6409 12.5352 21.3478 11.6756 22.2551 11.0707C23.1624 10.4659 24.2293 10.1431 25.3207 10.1431C26.0444 10.1414 26.7612 10.282 27.4303 10.5569C28.0994 10.8318 28.7075 11.2356 29.2198 11.7452C29.7322 12.2548 30.1387 12.8601 30.416 13.5266C30.6933 14.193 30.8361 14.9074 30.8361 15.629Z" fill="white"/>
<path d="M39.7293 13.5241C39.7293 14.6123 39.4055 15.676 38.7989 16.5806C38.1923 17.4852 37.3301 18.19 36.3215 18.6059C35.3129 19.0217 34.2033 19.1298 33.1331 18.9165C32.0628 18.7033 31.0801 18.1782 30.3093 17.4079C29.5385 16.6375 29.0142 15.6564 28.8029 14.5888C28.5916 13.5212 28.7027 12.4151 29.1222 11.4106C29.5416 10.406 30.2506 9.54805 31.1594 8.94539C32.0681 8.34273 33.1357 8.02244 34.2271 8.02504C34.9508 8.02504 35.6674 8.16735 36.3358 8.44386C37.0042 8.72038 37.6113 9.12569 38.1224 9.6365C38.6335 10.1473 39.0385 10.7536 39.3143 11.4207C39.59 12.0878 39.7311 12.8026 39.7293 13.5241Z" fill="white"/>
<path d="M42.2759 21.9568C45.3147 21.9568 47.7781 19.5007 47.7781 16.4709C47.7781 13.4411 45.3147 10.985 42.2759 10.985C39.2371 10.985 36.7737 13.4411 36.7737 16.4709C36.7737 19.5007 39.2371 21.9568 42.2759 21.9568Z" fill="white"/>
<path d="M55.8269 23.233C55.8295 24.3217 55.5078 25.3867 54.9028 26.2931C54.2978 27.1994 53.4366 27.9062 52.4282 28.3241C51.4199 28.7419 50.3098 28.8519 49.2387 28.6402C48.1676 28.4284 47.1837 27.9044 46.4115 27.1346C45.6394 26.3647 45.1138 25.3836 44.9014 24.3157C44.689 23.2477 44.7993 22.141 45.2184 21.1357C45.6375 20.1303 46.3465 19.2716 47.2555 18.6683C48.1645 18.0651 49.2327 17.7445 50.3247 17.7471C51.784 17.7471 53.1834 18.325 54.2153 19.3538C55.2472 20.3826 55.8269 21.778 55.8269 23.233Z" fill="white"/>
</g>
<defs>
<clipPath id="clip0_373_1035">
<rect width="66" height="78" fill="white"/>
</clipPath>
</defs>
</svg>
