<svg width="138" height="137" viewBox="0 0 138 137" fill="none" xmlns="http://www.w3.org/2000/svg">
<g clip-path="url(#clip0_373_1079)">
<path d="M136.338 83.1226C144.495 46.1704 120.932 9.65044 83.7105 1.55301C46.4886 -6.54443 9.70205 16.847 1.54551 53.7993C-6.61103 90.7515 16.9512 127.271 54.1731 135.369C91.395 143.466 128.182 120.075 136.338 83.1226Z" fill="#FF9A3E"/>
<path d="M101.76 21.6278C100.903 22.1478 100.186 22.8661 99.6692 23.7214C98.9907 24.481 98.542 25.4154 98.3749 26.417C98.3759 26.5533 98.4127 26.687 98.4818 26.8048C98.5509 26.9225 98.6498 27.0203 98.7688 27.0885C98.8877 27.1566 99.0225 27.1926 99.1598 27.1931C99.2971 27.1935 99.4321 27.1583 99.5515 27.0909C100.286 26.4787 100.881 25.7193 101.298 24.8625C101.883 24.0942 102.336 23.2349 102.638 22.3197C102.671 22.2051 102.669 22.0834 102.632 21.9699C102.596 21.8565 102.526 21.7563 102.432 21.6823C102.338 21.6082 102.224 21.5634 102.104 21.5538C101.985 21.5441 101.865 21.5698 101.76 21.6278Z" fill="white"/>
<path d="M113.137 25.3208C113.24 25.2124 113.309 25.0768 113.337 24.9303C113.364 24.7837 113.348 24.6325 113.29 24.4948C113.233 24.3572 113.137 24.2389 113.013 24.1542C112.89 24.0696 112.744 24.0223 112.594 24.0179C108.959 24.6484 105.588 26.3156 102.891 28.8161C102.774 28.9343 102.699 29.0877 102.678 29.2525C102.657 29.4173 102.692 29.5842 102.777 29.7275C102.861 29.8708 102.991 29.9824 103.146 30.0451C103.301 30.1077 103.472 30.1179 103.634 30.074C105.352 29.5709 107.002 28.8618 108.548 27.9625C110.174 27.2581 111.714 26.3718 113.137 25.3208Z" fill="white"/>
<path d="M112.594 31.9969C111.484 31.8979 110.365 32.0139 109.299 32.3384C108.209 32.5535 107.163 32.9483 106.204 33.5065C106.078 33.5853 105.982 33.702 105.928 33.8393C105.873 33.9766 105.865 34.1275 105.903 34.27C105.942 34.4124 106.025 34.539 106.141 34.6311C106.257 34.7233 106.4 34.7763 106.548 34.7824C107.656 34.7287 108.751 34.5293 109.806 34.1894C110.883 33.9738 111.92 33.5981 112.884 33.0752C112.99 33.0089 113.072 32.9104 113.118 32.7943C113.164 32.6782 113.172 32.5506 113.139 32.43C113.107 32.3095 113.036 32.2024 112.938 32.1245C112.84 32.0466 112.72 32.0018 112.594 31.9969Z" fill="white"/>
<path d="M119.292 42.6087C117.925 41.6948 116.385 41.068 114.766 40.7667C113.428 40.3839 111.998 40.4631 110.711 40.9913C110.645 41.0304 110.588 41.0842 110.545 41.1485C110.503 41.2128 110.475 41.286 110.466 41.3624C110.456 41.4387 110.464 41.5163 110.49 41.589C110.515 41.6618 110.557 41.7278 110.612 41.782C111.759 42.5143 113.065 42.9669 114.422 43.1029C115.916 43.4191 117.427 43.6471 118.948 43.7858C119.645 43.8487 119.771 42.9322 119.292 42.6087Z" fill="white"/>
<path d="M116.278 48.3683C115.703 48.1412 115.117 47.9432 114.522 47.7752C114.45 47.7574 114.375 47.7607 114.305 47.7848C114.235 47.8089 114.173 47.8528 114.128 47.911C114.083 47.9692 114.056 48.0392 114.05 48.1124C114.045 48.1857 114.061 48.259 114.096 48.3233C114.234 48.6487 114.42 48.9517 114.649 49.2219C114.909 49.489 115.216 49.708 115.554 49.8688C116.179 50.2895 116.946 50.4507 117.69 50.3181C117.8 50.2848 117.9 50.2242 117.98 50.1419C118.061 50.0597 118.118 49.9584 118.148 49.8478C118.178 49.7372 118.179 49.6209 118.151 49.5098C118.123 49.3987 118.067 49.2965 117.988 49.2129C117.581 48.7367 116.812 48.5839 116.278 48.3683Z" fill="white"/>
<path d="M115.4 32.4102C115.78 32.2754 116.16 32.1317 116.531 31.961C116.902 31.7902 117.337 31.3859 117.138 30.9366C116.748 30.0381 115.4 30.8827 114.866 31.1613C114.733 31.2514 114.635 31.3846 114.59 31.538C114.545 31.6915 114.554 31.8558 114.617 32.003C114.68 32.1502 114.792 32.2712 114.935 32.3455C115.078 32.4197 115.242 32.4426 115.4 32.4102Z" fill="white"/>
<path d="M31.7055 85.2532C31.9735 85.1548 32.1945 84.9599 32.3248 84.7073C32.455 84.4548 32.485 84.1629 32.4088 83.8894C32.3325 83.6159 32.1556 83.3809 31.913 83.2307C31.6705 83.0806 31.38 83.0264 31.0991 83.0788C28.5822 83.516 26.097 84.1163 23.6592 84.8759C21.4327 85.5048 18.8712 86.1608 16.9524 87.4906C16.8218 87.5741 16.7214 87.6967 16.6655 87.8405C16.6096 87.9844 16.6011 88.1422 16.6414 88.2912C16.6817 88.4401 16.7686 88.5725 16.8895 88.6692C17.0105 88.766 17.1593 88.8221 17.3145 88.8294C19.6496 88.9642 22.1839 88.2094 24.4194 87.6074C26.8958 86.9765 29.3294 86.1902 31.7055 85.2532Z" fill="white"/>
<path d="M24.51 94.1038C28.0218 93.0975 30.6194 90.905 33.6424 89.0451C33.7078 88.9941 33.7524 88.9214 33.7679 88.8403C33.7834 88.7593 33.7688 88.6754 33.7269 88.6042C33.685 88.5329 33.6185 88.4792 33.5397 88.4529C33.4609 88.4266 33.3752 88.4295 33.2984 88.461C30.0401 89.9167 26.7727 90.8332 23.9578 93.1694C23.5143 93.5108 23.9941 94.2566 24.51 94.1038Z" fill="white"/>
<path d="M35.0091 92.0462C32.786 93.7996 30.6872 95.703 28.7277 97.7429C26.7727 99.6658 24.2747 101.607 22.9804 104.033C22.9184 104.195 22.9049 104.371 22.9414 104.54C22.978 104.71 23.0631 104.865 23.1864 104.987C23.3098 105.11 23.4662 105.194 23.6368 105.23C23.8073 105.267 23.9848 105.253 24.1479 105.192C26.5645 103.835 28.4652 101.319 30.3297 99.3244C32.3342 97.3185 34.197 95.1779 35.9051 92.9178C36.3034 92.4236 35.5521 91.6598 35.0091 92.0462Z" fill="white"/>
<path d="M38.8196 96.2064C36.5899 99.3341 34.9521 102.839 33.9863 106.549C33.9609 106.675 33.9799 106.807 34.0404 106.922C34.1009 107.036 34.1992 107.127 34.3187 107.179C34.4383 107.23 34.572 107.239 34.6976 107.205C34.8233 107.17 34.9332 107.094 35.0091 106.989C37.3579 103.913 38.9117 100.313 39.5346 96.5029C39.5742 96.4087 39.5745 96.3029 39.5355 96.2085C39.4964 96.1141 39.4212 96.039 39.3264 95.9997C39.2316 95.9604 39.1249 95.9601 39.0299 95.9988C38.9348 96.0376 38.8592 96.1122 38.8196 96.2064Z" fill="white"/>
<path d="M43.3269 99.4591C42.5124 100.798 41.6163 102.775 42.0417 104.356C42.0595 104.417 42.0929 104.473 42.1388 104.517C42.1846 104.562 42.2413 104.594 42.3033 104.61C42.3653 104.626 42.4304 104.626 42.4924 104.61C42.5545 104.594 42.6112 104.562 42.6572 104.518C43.7252 103.26 43.7614 101.085 43.5623 99.531C43.556 99.5073 43.5438 99.4856 43.5267 99.4679C43.5096 99.4503 43.4883 99.4372 43.4648 99.43C43.4412 99.4228 43.4161 99.4217 43.392 99.4268C43.3679 99.4319 43.3455 99.443 43.3269 99.4591Z" fill="white"/>
<path d="M18.7174 80.3382C20.238 81.1828 23.1071 81.3536 24.5734 80.3382C24.6829 80.2693 24.7703 80.1707 24.8251 80.054C24.8799 79.9374 24.9 79.8076 24.8828 79.68C24.8657 79.5524 24.8121 79.4323 24.7284 79.334C24.6447 79.2357 24.5343 79.1632 24.4104 79.1252C23.5307 78.8654 22.6098 78.771 21.6952 78.8466C20.7872 78.7932 19.876 78.8445 18.9799 78.9994C18.838 79.0316 18.7086 79.1039 18.6074 79.2077C18.5062 79.3115 18.4375 79.4422 18.4097 79.584C18.3819 79.7258 18.3962 79.8726 18.4508 80.0064C18.5054 80.1403 18.5981 80.2556 18.7174 80.3382Z" fill="white"/>
<path d="M13.4226 79.0712L12.9157 78.9185C12.5218 78.8735 12.124 78.8735 11.73 78.9185C11.5277 78.9397 11.3403 79.0345 11.2041 79.1846C11.068 79.3348 10.9926 79.5296 10.9926 79.7317C10.9926 79.9337 11.068 80.1286 11.2041 80.2788C11.3403 80.4289 11.5277 80.5237 11.73 80.5449C12.124 80.5899 12.5218 80.5899 12.9157 80.5449C13.0877 80.5449 13.2597 80.437 13.4226 80.3921C13.6079 80.3627 13.7774 80.2706 13.9022 80.1315C13.9964 80.0316 14.0488 79.9 14.0488 79.7631C14.0488 79.6263 13.9964 79.4946 13.9022 79.3947C13.7866 79.2333 13.6164 79.1185 13.4226 79.0712Z" fill="white"/>
<path fill-rule="evenodd" clip-rule="evenodd" d="M55.1022 33.3088C55.1022 33.3088 53.1653 64.1556 54.5863 76.187C56.0073 88.2184 56.7766 93.2053 65.8005 96.2783C74.8243 99.3512 87.7128 93.978 89.7674 83.2225C91.822 72.467 90.0298 33.803 90.0298 33.803C90.0298 33.803 65.7823 23.0654 55.1022 33.3088Z" fill="#F7C099"/>
<path fill-rule="evenodd" clip-rule="evenodd" d="M54.3329 49.4016C51.5271 47.8921 48.3411 48.3952 46.8115 52.4926C45.4629 56.0867 48.8118 59.9235 52.4503 61.3072C52.9741 61.5036 53.517 61.6451 54.0704 61.7295C54.0704 57.6412 54.1971 53.3642 54.3329 49.4016Z" fill="#F7C099"/>
<path fill-rule="evenodd" clip-rule="evenodd" d="M51.8258 61.0466C52.034 61.1455 52.2422 61.2264 52.4503 61.3072C52.9741 61.5036 53.5171 61.6451 54.0704 61.7295C54.0704 59.1328 54.1248 56.4551 54.2062 53.8404C53.7351 53.7096 53.2409 53.682 52.758 53.7595C49.9522 54.2088 49.9975 58.5038 51.8529 61.0466H51.8258Z" fill="#F29877"/>
<path fill-rule="evenodd" clip-rule="evenodd" d="M90.5911 50.4259C93.8585 45.6906 100.067 43.9295 102.484 50.4259C103.959 54.3525 100.294 58.5127 96.3294 60.0402C94.5376 60.7554 92.5368 60.7554 90.745 60.0402C90.745 56.7606 90.6635 53.472 90.5911 50.39V50.4259Z" fill="#F7C099"/>
<path fill-rule="evenodd" clip-rule="evenodd" d="M97.0082 59.7528L96.3294 60.0403C94.5376 60.7555 92.5367 60.7555 90.7449 60.0403V59.7438V58.5128V57.758V57.2908V57.0032V56.545V55.7722V55.4757V55.323V55.0175C91.8401 53.3731 93.6684 51.4233 96.0578 51.7917C99.108 52.2859 99.0808 56.9673 97.0715 59.7438L97.0082 59.7528Z" fill="#F29877"/>
<path fill-rule="evenodd" clip-rule="evenodd" d="M58.5416 58.3061C58.5416 58.3061 56.5323 55.5116 54.1247 55.8621C51.7172 56.2125 53.0205 59.2765 55.9349 59.6359C58.8493 59.9953 59.2476 59.0519 58.5325 58.3061H58.5416Z" fill="#F4846E"/>
<path fill-rule="evenodd" clip-rule="evenodd" d="M84.4364 58.4049C84.4364 58.4049 86.6901 54.6311 89.7855 54.9545C92.881 55.278 91.5324 59.3664 87.8577 60.0043C84.183 60.6423 83.6037 59.4293 84.4364 58.4049Z" fill="#F4846E"/>
<path fill-rule="evenodd" clip-rule="evenodd" d="M55.1022 33.3088C55.1022 33.3088 54.9574 35.5192 54.7764 38.9786C58.2882 37.5229 67.0586 34.1265 73.6115 33.5873C80.6441 33.0392 88.093 39.7962 90.3467 41.9887C90.1747 37.0737 90.0299 33.785 90.0299 33.785C90.0299 33.785 65.7824 23.0655 55.1022 33.3088Z" fill="#F29877"/>
<path fill-rule="evenodd" clip-rule="evenodd" d="M90.0932 39.5985C90.0932 39.5985 92.8085 28.8161 89.7131 23.0834C86.6176 17.3507 77.3404 13.6128 64.8229 17.9707C52.3055 22.3286 45.8793 24.1077 41.752 19.7678C37.6248 15.4279 39.8242 9.53345 39.8242 9.53345C39.8242 9.53345 33.1174 12.4717 33.6333 19.4174C34.1492 26.3631 39.969 27.612 39.969 27.612C39.0233 28.5439 37.8265 29.1846 36.5227 29.4572C35.2189 29.7298 33.8635 29.6226 32.6196 29.1485C27.9855 27.612 28.0941 24.2785 28.0941 24.2785C28.0941 24.2785 23.5687 38.2327 32.0856 43.4712C39.1001 47.8111 48.3773 43.5251 55.2018 38.3675C65.5832 30.4963 82.8162 24.0628 90.0932 39.6434V39.5985Z" fill="#42231E"/>
<path fill-rule="evenodd" clip-rule="evenodd" d="M52.5046 75.54C51.7262 78.2356 50.1242 84.4176 50.2147 89.2787C50.3756 93.4094 51.2703 97.4794 52.8576 101.301C52.8576 101.301 53.5726 105.084 52.2784 107.438C51.5117 108.852 50.3442 110.011 48.9204 110.772C50.2102 111.206 51.5592 111.443 52.9209 111.473C54.6587 111.41 56.2698 109.244 56.2698 109.244C56.2698 109.244 57.0482 113.845 49.029 117.43C41.0099 121.015 37.8149 119.865 37.8149 119.865C37.8149 119.865 41.6797 128.949 50.0518 129.461C58.4239 129.973 63.0852 128.051 63.0852 128.051C62.0969 129.139 60.9424 130.067 59.6639 130.8C58.755 131.215 57.8058 131.538 56.831 131.762C56.831 131.762 65.719 133.675 78.6166 123.953C91.5142 114.231 90.3376 101.175 90.3376 101.175C90.8341 102.827 91.1794 104.52 91.3695 106.234C91.46 107.32 91.4418 108.413 91.3152 109.496C93.8942 107.637 95.7381 104.942 96.5285 101.876C97.9495 96.6377 97.3612 94.0769 97.3612 94.0769C98.2958 95.0685 99.3615 95.93 100.529 96.6377C102.231 97.5991 104.683 96.6916 104.683 96.6916C103.485 93.9662 102.525 91.1433 101.814 88.2543C100.944 84.9127 100.36 81.5042 100.067 78.0649C96.086 79.6544 91.7679 80.2319 87.5047 79.7452C84.9435 79.4629 82.4373 78.8121 80.0648 77.8133C78.3089 94.5351 66.5698 92.0012 67.7193 85.1544L62.8227 85.7923C62.8227 85.7923 64.4971 91.0308 59.854 90.5276C55.9349 90.0963 55.4643 77.6875 55.41 73.8508C54.5049 74.4528 53.5002 75.0369 52.4774 75.576L52.5046 75.54Z" fill="#42231E"/>
<path fill-rule="evenodd" clip-rule="evenodd" d="M52.5046 75.54C52.3236 76.16 52.0973 76.9687 51.862 77.9032L55.4824 76.3667C55.4824 75.3424 55.4191 74.4528 55.401 73.8148C54.4959 74.4168 53.4912 75.0009 52.4684 75.54H52.5046ZM100.312 80.2394C100.203 79.3408 100.14 78.5861 100.095 78.0649C96.1048 79.6589 91.7768 80.2365 87.5047 79.7452C84.9435 79.4629 82.4373 78.8121 80.0648 77.8133C79.9924 78.5771 79.8928 79.2869 79.7661 79.9788C83.5699 81.1587 87.5509 81.6756 91.5324 81.5063C94.505 81.5429 97.4657 81.1278 100.312 80.2753V80.2394Z" fill="#301A16"/>
<path fill-rule="evenodd" clip-rule="evenodd" d="M64.6691 60.6333C64.6691 60.6333 61.5737 56.7876 52.4232 59.7348C43.2726 62.682 39.2721 66.0245 33.217 63.7063C27.1619 61.3881 29.4699 54.3705 31.9318 53.3462C33.3546 52.7297 34.9311 52.5513 36.4572 52.834C36.4572 52.834 31.5607 50.3361 28.1394 53.4001C24.7181 56.4641 25.4965 61.9811 25.4965 61.9811C24.7321 61.6908 24.0291 61.2611 23.4239 60.7142C22.9102 60.0214 22.5269 59.2421 22.2925 58.4139C21.6662 60.0667 21.416 61.8367 21.56 63.5968C21.704 65.3569 22.2385 67.0635 23.1252 68.5944C23.9899 70.1362 25.2518 71.4221 26.7818 72.3205C28.3117 73.2189 30.0547 73.6974 31.8322 73.707C31.2579 74.3373 30.537 74.8185 29.7324 75.1088C29.141 75.2878 28.5354 75.4171 27.9222 75.4951C27.9222 75.4951 31.9861 79.3678 43.2002 78.4783C54.4144 77.5887 63.8907 66.7074 63.8907 66.7074C63.8907 66.7074 75.4126 78.5951 87.5047 79.7452C99.5968 80.8953 105.163 74.8752 105.163 74.8752L101.135 73.6981C101.135 73.6981 110.965 72.7007 114.06 68.7381C117.156 64.7756 116.64 61.8284 116.64 61.8284L112.386 64.8924C113.395 61.9645 113.527 58.8091 112.766 55.8082C111.481 50.9471 107.878 50.0576 107.878 50.0576C107.878 50.0576 113.626 60.6782 103.099 63.877C102.58 64.0315 102.051 64.1516 101.516 64.2365C97.5874 64.8834 92.6275 64.0118 88.4641 62.673C81.0242 60.2739 74.1183 56.7516 64.642 60.6333H64.6691Z" fill="#42231E"/>
<path d="M51.2013 65.4944C51.2528 65.4407 51.2852 65.3718 51.2938 65.2981C51.3023 65.2244 51.2865 65.15 51.2487 65.086C51.2109 65.0221 51.1531 64.9721 51.0841 64.9437C51.0152 64.9152 50.9387 64.9098 50.8664 64.9283C48.7394 65.5034 46.7843 66.6355 44.6574 67.2645C42.428 67.9434 40.0999 68.2471 37.7696 68.163C35.7605 68.0736 33.7781 67.6703 31.8955 66.968C29.8946 66.121 28.1372 64.7933 26.7817 63.1043C26.6912 63.0054 26.5283 63.1043 26.6008 63.248C28.7911 66.5996 33.0722 68.8549 37.0003 69.3311C39.4973 69.6022 42.0236 69.3917 44.4402 68.7111C46.7753 68.1091 49.4906 67.1477 51.2013 65.4944Z" fill="#633A36"/>
<path d="M106.838 66.0695C104.122 67.2466 101.66 68.4955 98.6917 68.9718C95.8854 69.4331 93.0121 69.2921 90.2652 68.5584C84.9614 67.1388 80.5445 63.5536 75.1501 62.3765C74.951 62.3316 74.8605 62.6281 75.0596 62.682C81.0785 64.1736 85.7669 68.7291 91.8582 70.023C96.8453 71.0743 103.443 70.3375 107.299 66.7164C107.706 66.375 107.245 65.8988 106.838 66.0695Z" fill="#633A36"/>
<path d="M95.7048 74.1293C93.6164 74.5299 91.4756 74.5845 89.3691 74.2911C87.3608 73.8481 85.4109 73.1757 83.5584 72.2873C81.8001 71.5725 80.1021 70.7192 78.4809 69.7355C76.9513 68.7381 75.9375 67.1657 74.3446 66.2941C74.3194 66.2798 74.2894 66.276 74.2614 66.2836C74.2334 66.2912 74.2096 66.3095 74.1952 66.3345C74.1808 66.3596 74.177 66.3892 74.1846 66.417C74.1923 66.4449 74.2108 66.4685 74.236 66.4828C75.8832 67.6689 76.9512 69.403 78.689 70.5532C80.5888 71.8382 82.5723 72.9968 84.6265 74.0215C87.912 75.6299 92.5279 77.0765 95.9402 75.0279C96.3293 74.8032 96.2117 74.0575 95.7048 74.1293Z" fill="#633A36"/>
<path d="M51.9525 69.5468C48.3375 71.1585 44.4006 71.9328 40.4397 71.8112C40.132 71.8112 40.0415 72.3053 40.3673 72.3682C44.4787 72.9451 48.6649 72.1013 52.2241 69.9781C52.4956 69.8254 52.2059 69.412 51.9525 69.5468Z" fill="#633A36"/>
<path d="M33.3618 71.263C32.3408 70.7384 31.2451 70.3718 30.1125 70.1758C30.0492 70.1758 30.0039 70.2566 30.0582 70.2836C31.0126 70.9225 32.0594 71.4134 33.1627 71.7392C33.2238 71.7546 33.2883 71.7476 33.3447 71.7195C33.401 71.6915 33.4453 71.6443 33.4695 71.5865C33.4936 71.5288 33.496 71.4643 33.4763 71.4049C33.4565 71.3455 33.4159 71.2951 33.3618 71.263Z" fill="#633A36"/>
<path d="M57.5188 61.3432C55.8716 60.3907 53.2558 61.5408 52.0882 62.8167C52.0758 62.8336 52.0686 62.8537 52.0675 62.8746C52.0664 62.8955 52.0715 62.9162 52.082 62.9343C52.0926 62.9524 52.1082 62.9671 52.127 62.9765C52.1458 62.9859 52.1669 62.9897 52.1878 62.9875C53.0602 62.6452 53.9724 62.4128 54.9031 62.2956C55.7283 62.3407 56.556 62.3046 57.374 62.1878C57.463 62.166 57.5436 62.1188 57.606 62.0522C57.6684 61.9855 57.7098 61.9022 57.7252 61.8126C57.7405 61.7229 57.7292 61.6307 57.6926 61.5473C57.6559 61.4639 57.5955 61.393 57.5188 61.3432Z" fill="#633A36"/>
<path d="M74.6886 70.643C73.3803 69.2582 71.7705 68.1887 69.9821 67.5161C69.6834 67.3903 69.3485 67.7228 69.6109 67.9924C70.9213 69.4108 72.5403 70.514 74.3446 71.2181C74.7067 71.3349 74.8877 70.8856 74.6886 70.643Z" fill="#633A36"/>
<path d="M95.3247 82.8002C95.3247 82.774 95.3142 82.7489 95.2955 82.7304C95.2769 82.7118 95.2516 82.7014 95.2252 82.7014C95.1988 82.7014 95.1734 82.7118 95.1547 82.7304C95.1361 82.7489 95.1256 82.774 95.1256 82.8002C94.7816 85.5588 94.8631 88.5689 96.9357 90.7523C97.0054 90.8162 97.0938 90.8562 97.188 90.8665C97.2823 90.8769 97.3773 90.857 97.4593 90.8098C97.5413 90.7625 97.6059 90.6905 97.6436 90.6041C97.6813 90.5178 97.6902 90.4217 97.6689 90.33C96.8905 87.8141 95.5872 85.424 95.3247 82.8002Z" fill="#633A36"/>
<path d="M88.5637 86.592C88.4732 85.4329 88.7537 84.2648 88.6089 83.1147H88.5275C87.5409 84.8489 87.8215 87.6074 88.0659 89.5303C88.3466 91.9582 89.0867 94.3117 90.2472 96.467C90.4101 96.7635 90.7902 96.5388 90.754 96.2513C90.4554 94.1038 89.6769 92.0641 89.1791 89.9615C88.8879 88.8556 88.6822 87.7291 88.5637 86.592Z" fill="#633A36"/>
<path d="M81.2324 83.1956C79.7118 90.8421 80.0105 98.7223 78.5171 106.369C77.8736 110.081 76.5417 113.643 74.5889 116.873C72.5615 120.09 69.8372 122.318 67.1219 124.888C66.7237 125.256 67.2305 125.786 67.665 125.589C74.2269 122.614 78.1822 114.869 79.5942 108.238C81.35 100.043 80.1825 91.5789 81.6759 83.3573C81.7302 83.0249 81.2867 82.8991 81.2324 83.1956Z" fill="#633A36"/>
<path d="M84.002 91.3273C83.8753 94.8226 85.079 98.1472 85.1695 101.625C85.1811 105.192 84.4056 108.719 82.8977 111.958C82.8674 112.028 82.864 112.107 82.8883 112.18C82.9125 112.253 82.9627 112.314 83.0294 112.353C83.0961 112.392 83.1748 112.405 83.2505 112.39C83.3263 112.375 83.394 112.333 83.4408 112.272C85.2863 109.453 86.2702 106.164 86.2738 102.802C86.3281 98.8571 84.5813 95.236 84.4636 91.3273C84.4636 91.2666 84.4393 91.2083 84.396 91.1653C84.3527 91.1223 84.294 91.0982 84.2328 91.0982C84.1716 91.0982 84.1129 91.1223 84.0696 91.1653C84.0263 91.2083 84.002 91.2666 84.002 91.3273Z" fill="#633A36"/>
<path d="M70.8599 96.5838C70.8223 96.5183 70.7638 96.467 70.6937 96.438C70.6236 96.4089 70.5458 96.4037 70.4724 96.4232C70.399 96.4427 70.3341 96.4858 70.288 96.5457C70.2419 96.6056 70.217 96.679 70.2174 96.7545C71.1225 103.637 70.8418 110.772 66.1082 116.352C63.9638 118.892 61.1729 120.815 58.026 121.921C54.8791 123.027 51.4911 123.276 48.2145 122.641C48.1851 122.635 48.1543 122.64 48.1285 122.655C48.1026 122.67 48.0838 122.695 48.0756 122.724C48.0675 122.753 48.0708 122.783 48.0849 122.81C48.0989 122.836 48.1226 122.856 48.1511 122.866C54.8579 125.067 62.5421 122.614 67.1581 117.34C71.8375 111.904 73.7562 103.305 70.8599 96.5838Z" fill="#633A36"/>
<path d="M60.1074 95.0203C60.0955 94.9767 60.0751 94.9358 60.0473 94.9C60.0195 94.8641 59.9848 94.8341 59.9453 94.8116C59.8656 94.7661 59.7709 94.7539 59.682 94.7777C59.5932 94.8016 59.5176 94.8594 59.4717 94.9386C59.4259 95.0178 59.4136 95.1119 59.4377 95.2001C59.9401 97.0327 59.9401 98.9653 59.4377 100.798C58.9398 102.55 57.89 103.871 57.1387 105.479C57.012 105.731 57.2835 106.099 57.5732 105.911C60.7953 103.718 61.0849 98.3719 60.1074 95.0203Z" fill="#633A36"/>
<path d="M62.162 110.071C62.0172 110.43 62.5331 110.664 62.7865 110.43C66.4069 107.016 64.6872 101.274 63.9722 97.1229C64.2301 99.4431 64.2301 101.784 63.9722 104.105C63.652 106.167 63.0427 108.176 62.162 110.071Z" fill="#633A36"/>
<path d="M55.1837 94.4902C54.4053 91.1926 53.6994 88.0927 54.0252 84.6692C54.0252 84.3817 53.5998 84.3368 53.5274 84.5973C52.6223 87.9219 52.6223 91.7856 54.5049 94.7778C54.5495 94.8572 54.6222 94.9174 54.7089 94.9468C54.7956 94.9762 54.8903 94.9728 54.9745 94.9371C55.0588 94.9014 55.1268 94.836 55.1655 94.7535C55.2041 94.671 55.2105 94.5772 55.1837 94.4902Z" fill="#633A36"/>
<path d="M56.1521 94.005C56.4078 95.7668 56.7644 97.5128 57.2201 99.2345C57.2744 99.4321 57.6094 99.4052 57.5912 99.1895C57.4617 97.3813 57.2321 95.5815 56.9034 93.7983C56.8129 93.3131 56.0797 93.5108 56.1521 94.005Z" fill="#633A36"/>
<path d="M73.7019 94.5801C73.8377 97.0241 73.8739 99.4681 74.0006 101.912C74.0006 102.191 74.4712 102.289 74.5255 101.984C74.863 99.4943 74.7217 96.9636 74.1092 94.5261C74.0549 94.3015 73.6838 94.3464 73.7019 94.5801Z" fill="#633A36"/>
<path d="M53.8984 119.371C55.6316 118.74 57.2064 117.744 58.5144 116.45C58.8131 116.19 58.3787 115.777 58.08 116.028C56.6912 117.095 55.2339 118.07 53.7174 118.948C53.5092 119.092 53.6359 119.452 53.8984 119.371Z" fill="#633A36"/>
<path d="M67.1491 92.8009C66.959 91.5699 66.7689 90.3479 66.6241 89.1169C66.6126 89.055 66.5796 88.999 66.5308 88.9587C66.4821 88.9184 66.4206 88.8964 66.3571 88.8964C66.2937 88.8964 66.2322 88.9184 66.1835 88.9587C66.1347 88.999 66.1017 89.055 66.0902 89.1169C65.9786 90.4315 66.219 91.752 66.787 92.9447C66.8957 93.1693 67.1853 92.9986 67.1491 92.8009Z" fill="#633A36"/>
<path d="M63.8274 92.3427C63.7943 93.0449 63.9056 93.7465 64.1546 94.4046C64.4036 95.0627 64.785 95.6635 65.2756 96.1705C65.4656 96.3412 65.8458 96.1705 65.7462 95.9009C65.52 95.2899 65.1851 94.7328 64.9407 94.1038C64.6963 93.4749 64.5424 92.8639 64.298 92.2529C64.2767 92.2009 64.2379 92.1579 64.1882 92.1312C64.1385 92.1045 64.0811 92.0956 64.0256 92.1062C63.9702 92.1168 63.9201 92.1462 63.8839 92.1893C63.8478 92.2324 63.8278 92.2866 63.8274 92.3427Z" fill="#633A36"/>
<path d="M84.192 87.8141C84.53 86.2789 84.7059 84.713 84.7169 83.1416C84.7169 82.6924 84.0743 82.7104 84.0291 83.1416C83.7714 84.664 83.6714 86.2086 83.7304 87.7512C83.7307 87.8074 83.7515 87.8616 83.7888 87.9039C83.8262 87.9462 83.8776 87.9737 83.9337 87.9814C83.9898 87.989 84.0469 87.9763 84.0943 87.9455C84.1418 87.9148 84.1765 87.8681 84.192 87.8141Z" fill="#633A36"/>
<path d="M43.7704 122.947C43.6347 122.857 43.4899 123.055 43.5985 123.162C45.3544 124.852 47.3094 126.658 49.7622 127.215C49.8439 127.235 49.9302 127.226 50.0056 127.189C50.081 127.151 50.1405 127.088 50.1732 127.011C50.206 126.934 50.21 126.848 50.1844 126.769C50.1588 126.689 50.1053 126.621 50.0337 126.577C48.0877 125.157 45.7617 124.304 43.7704 122.947Z" fill="#633A36"/>
<path d="M80.626 116.244C80.3953 117.526 79.9058 118.748 79.1869 119.838C79.0602 120.063 79.3408 120.413 79.5851 120.224C80.1637 119.737 80.6011 119.106 80.8525 118.395C81.1038 117.684 81.16 116.92 81.0152 116.181C80.988 115.974 80.6532 116.046 80.626 116.244Z" fill="#633A36"/>
<path d="M71.3668 21.3313C74.4803 21.1426 77.6482 20.4867 80.6983 21.502C83.4136 22.4005 84.7441 24.1976 85.8393 26.7584C85.8393 26.8393 86.0203 26.8213 86.0294 26.7584C86.4548 24.2246 84.1468 21.7895 82.0832 20.6753C78.7886 18.8783 74.6523 19.2916 71.222 20.5496C70.8509 20.6664 70.869 21.3672 71.3668 21.3313Z" fill="#633A36"/>
<path d="M68.0904 27.1988C71.403 26.0846 74.426 24.9254 78.0464 25.7072C78.1104 25.7142 78.1748 25.6985 78.2282 25.6628C78.2815 25.627 78.3204 25.5736 78.3378 25.5121C78.3552 25.4506 78.35 25.3849 78.3232 25.3269C78.2964 25.2688 78.2496 25.2221 78.1913 25.195C74.8153 24.0898 70.5251 23.8921 67.6288 26.3362C67.5577 26.4157 67.5128 26.5148 67.5001 26.6204C67.4874 26.7259 67.5075 26.8328 67.5578 26.9266C67.608 27.0205 67.6859 27.0969 67.7811 27.1455C67.8763 27.1941 67.9842 27.2127 68.0904 27.1988Z" fill="#633A36"/>
<path d="M84.4817 29.1486C84.2554 29.0677 84.002 29.3732 84.1558 29.5709C84.5179 30.0561 84.9885 30.4694 85.3506 30.9277C85.7126 31.386 86.0566 31.943 86.3915 32.4552C86.4324 32.5113 86.4912 32.552 86.5585 32.5705C86.6257 32.589 86.6972 32.5843 86.7614 32.5572C86.8256 32.53 86.8786 32.482 86.9117 32.421C86.9448 32.3601 86.956 32.2897 86.9436 32.2216C86.8131 31.5503 86.5211 30.9203 86.0924 30.3852C85.6638 29.8502 85.1111 29.4259 84.4817 29.1486Z" fill="#633A36"/>
<path d="M45.8703 28.6813C48.7106 29.3066 51.6809 28.9483 54.2877 27.666C54.7312 27.4234 54.5682 26.5967 54.0161 26.6686C51.4547 27.001 49.0743 27.657 46.4495 27.3245C43.9877 27.01 41.4082 26.1295 39.779 24.1976C39.6432 24.0449 39.4351 24.2695 39.5527 24.4222C41.0802 26.5438 43.3205 28.0542 45.8703 28.6813Z" fill="#633A36"/>
<path d="M45.8703 39.0145C50.966 37.9452 56.9487 35.0699 60.026 30.7389C60.3337 30.3076 59.7182 29.6877 59.2838 30.0021C57.4736 31.296 55.8082 32.7966 53.8532 33.9737C51.8343 35.2203 49.6704 36.219 47.4089 36.9478C42.6662 38.4574 36.4391 39.0324 33.742 33.9018C33.6333 33.6951 33.2713 33.8389 33.3528 34.0635C35.2535 39.0414 41.209 39.9939 45.8703 39.0145Z" fill="#633A36"/>
<path d="M51.0927 31.3949C48.6761 31.943 46.5671 32.8505 44.0329 32.9943C43.7704 32.9943 43.689 33.3986 43.9696 33.4615C46.4676 34.0366 49.5178 33.9377 51.5995 32.2665C52.0249 31.916 51.5543 31.296 51.0927 31.3949Z" fill="#633A36"/>
<path d="M61.5104 24.6649C62.5448 24.3217 63.5034 23.7849 64.3343 23.0835C64.3787 23.0402 64.4073 22.9835 64.4157 22.9223C64.4242 22.8612 64.4119 22.7989 64.3808 22.7454C64.3497 22.6919 64.3016 22.6502 64.244 22.6268C64.1864 22.6034 64.1226 22.5997 64.0627 22.6162C63.035 22.881 62.0654 23.3318 61.2026 23.9461C60.8406 24.1707 61.0759 24.8446 61.5104 24.6649Z" fill="#633A36"/>
<path fill-rule="evenodd" clip-rule="evenodd" d="M73.6929 35.7977C74.0378 34.9773 74.6055 34.2682 75.3326 33.7494C76.0598 33.2305 76.9179 32.9225 77.8111 32.8595C80.9156 32.6619 81.1057 36.9479 81.1057 36.9479L73.6929 35.7977Z" fill="#42231E"/>
<path fill-rule="evenodd" clip-rule="evenodd" d="M58.9218 39.3649C58.9293 38.709 59.0981 38.0649 59.4136 37.4887C59.7291 36.9124 60.1817 36.4213 60.7319 36.0583C62.5421 35.0789 64.7777 36.831 64.7777 36.831C64.7777 36.831 58.9218 39.302 58.9399 39.3649H58.9218Z" fill="#42231E"/>
<path fill-rule="evenodd" clip-rule="evenodd" d="M74.6523 45.5289C74.6523 45.5289 75.4941 50.7135 78.0103 51.1627C80.5264 51.612 80.6531 45.466 80.6531 45.466C80.6531 45.466 79.4856 49.5633 77.6844 49.1051C75.8833 48.6468 74.7881 45.7266 74.6523 45.5109V45.5289Z" fill="#46231F"/>
<path fill-rule="evenodd" clip-rule="evenodd" d="M57.0573 45.8883C57.0573 45.8883 57.899 51.0728 60.4152 51.5131C62.9313 51.9534 63.058 45.8164 63.058 45.8164C63.058 45.8164 61.8995 49.9227 60.0894 49.4645C58.2792 49.0062 57.193 46.077 57.0573 45.8703V45.8883Z" fill="#46231F"/>
<path fill-rule="evenodd" clip-rule="evenodd" d="M61.619 73.1589C61.619 73.1589 62.6236 78.7209 65.3932 78.2716C68.1628 77.8224 68.8416 72.7007 68.8416 72.7007C68.8416 72.7007 70.8057 79.889 66.7418 80.7875C62.6779 81.6861 61.1393 76.5734 61.619 73.15V73.1589Z" fill="#8C523D"/>
<path fill-rule="evenodd" clip-rule="evenodd" d="M48.5222 42.7165C51.424 41.8912 54.3702 41.2282 57.3469 40.7307C59.9956 40.3066 62.6973 40.3278 65.3389 40.7936L65.4203 43.3365C66.2394 43.0347 67.1002 42.859 67.9727 42.8153C68.8641 42.815 69.75 42.9545 70.5975 43.2286C70.5741 42.0284 70.6285 40.8278 70.7604 39.6345C70.7604 39.6345 79.8114 38.0441 84.0382 37.9722C88.265 37.9003 91.0617 37.8464 91.0617 37.8464V40.6678L93.958 40.4701L93.768 45.7805L91.5867 44.8819L90.8716 53.1305C90.8716 53.1305 87.9663 54.2177 81.522 54.4783C78.0686 54.7077 74.6013 54.3368 71.2763 53.3821C71.2763 53.3821 70.7604 49.2219 70.6246 45.0257C69.7541 44.7091 68.8364 44.539 67.9094 44.5225C67.0924 44.6044 66.2876 44.7793 65.5109 45.0437L65.7643 53.454C65.7643 53.454 58.6774 54.8018 55.8082 55.2511C54.4948 55.5114 53.1554 55.6199 51.8168 55.5745C50.2211 51.4301 49.1184 47.1149 48.5313 42.7165H48.5222ZM73.0775 41.6921C73.0775 41.6921 78.508 40.7307 81.7211 40.542C83.8333 40.43 85.9509 40.4721 88.0568 40.6678L87.6676 51.9894C84.3577 52.2856 81.0347 52.4145 77.7116 52.3757C76.1953 52.3176 74.684 52.1676 73.1861 51.9265C73.1861 51.9265 73.1318 41.6921 73.0594 41.6921H73.0775ZM51.1018 44.1811C53.3583 43.4502 55.6626 42.8737 57.9986 42.4559C59.7637 42.1434 61.5641 42.0768 63.3477 42.2582L64.1804 52.3128L53.1111 53.9033C53.1111 53.9033 50.975 46.104 51.1108 44.1811H51.1018Z" fill="#42231E"/>
<path fill-rule="evenodd" clip-rule="evenodd" d="M66.3707 45.1425C66.3707 45.1425 64.126 53.5259 61.9267 57.8748C60.4295 60.7321 58.6595 63.4402 56.6409 65.9616C59.7362 65.9995 62.8261 65.6981 65.8548 65.0631C70.4346 64.0387 70.8871 63.0773 70.8871 63.0773C70.8871 63.0773 71.5298 53.0946 66.3617 45.1066L66.3707 45.1425Z" fill="#E57373"/>
</g>
<defs>
<clipPath id="clip0_373_1079">
<rect width="138" height="137" fill="white"/>
</clipPath>
</defs>
</svg>
